<?xml version="1.0" standalone="no"?>
<!DOCTYPE svg PUBLIC "-//W3C//DTD SVG 20010904//EN"
 "http://www.w3.org/TR/2001/REC-SVG-20010904/DTD/svg10.dtd">
<svg version="1.0" xmlns="http://www.w3.org/2000/svg"
 width="460.000000pt" height="460.000000pt" viewBox="0 0 460.000000 460.000000"
 preserveAspectRatio="xMidYMid meet">
<metadata>
Created by potrace 1.14, written by Peter Selinger 2001-2017
</metadata>
<g transform="translate(0.000000,460.000000) scale(0.100000,-0.100000)"
fill="#000000" stroke="none">
<path d="M2128 4595 c-2 -2 -32 -6 -68 -9 -390 -33 -818 -204 -1155 -459 -278
-211 -502 -482 -658 -796 -83 -166 -159 -370 -182 -489 -1 -9 -8 -35 -13 -57
-6 -22 -14 -65 -17 -95 -4 -30 -9 -58 -11 -61 -17 -29 -25 -437 -11 -569 12
-110 46 -294 67 -365 60 -197 97 -290 178 -450 54 -105 183 -307 236 -370 15
-16 43 -50 64 -75 61 -74 181 -190 280 -273 193 -161 396 -279 637 -372 201
-77 379 -121 585 -142 108 -11 454 -8 530 5 36 6 85 14 110 17 124 18 376 94
520 157 603 267 1051 759 1266 1390 12 38 21 68 18 68 -3 0 0 9 6 19 12 23 57
226 66 298 3 26 8 59 10 73 3 14 6 111 8 215 3 173 -2 270 -19 380 -3 22 -8
54 -11 70 -32 199 -110 430 -216 638 -180 354 -440 647 -772 869 -116 77 -285
168 -389 209 -29 11 -65 26 -82 34 -81 35 -355 106 -463 120 -26 3 -63 8 -82
11 -38 6 -426 14 -432 9z"/>
</g>
</svg>
